<svg width="375" height="812" viewBox="0 0 375 812" fill="none" xmlns="http://www.w3.org/2000/svg">
<rect width="375" height="812" fill="#3B8EBC"/>
<path d="M528.368 -21.6109C548.916 46.1598 499.067 132.104 419.156 194.195C338.864 256.666 228.13 294.905 150.122 248.336C72.1138 201.389 27.2114 69.2549 61.8395 -17.4462C96.4676 -104.526 211.007 -146.551 313.749 -142.765C416.492 -138.979 507.819 -89.3816 528.368 -21.6109Z" fill="#97C7E2" fill-opacity="0.21"/>
<path d="M101.825 702.676C115.907 749.392 81.7456 808.635 26.9826 851.436C-28.0412 894.498 -103.927 920.857 -157.386 888.756C-210.845 856.394 -241.617 765.312 -217.886 705.547C-194.156 645.521 -115.662 616.552 -45.2525 619.162C25.1571 621.772 87.7435 655.96 101.825 702.676Z" fill="#97C7E2" fill-opacity="0.47"/>
</svg>
