<svg width="236" height="45" viewBox="0 0 236 45" fill="none" xmlns="http://www.w3.org/2000/svg">
<path d="M17.4612 0V4.84685C17.4612 6.23735 18.5884 7.36448 19.9786 7.36448H24.6674V3.49127C24.6674 1.56292 23.1042 0 21.1761 0H17.4612Z" fill="white"/>
<path d="M104.727 36.9017C103.328 36.9017 102.193 38.0364 102.193 39.4359V41.8117C102.193 43.2111 103.328 44.3455 104.727 44.3455H108.212C109.611 44.3455 110.745 43.2111 110.745 41.8117V39.4359C110.745 38.0364 109.611 36.9017 108.212 36.9017H104.727Z" fill="white"/>
<path d="M92.5718 36.9017C91.1724 36.9017 90.0377 38.0364 90.0377 39.4359V41.8117C90.0377 43.2111 91.1724 44.3455 92.5718 44.3455H96.056C97.4555 44.3455 98.5902 43.2111 98.5902 41.8117V39.4359C98.5902 38.0364 97.4555 36.9017 96.056 36.9017H92.5718Z" fill="white"/>
<path d="M170.481 29.8099C168.653 29.8099 166.905 29.4704 165.233 28.7916C163.562 28.0604 162.075 27.0424 160.769 25.7369C159.515 27.0424 158.414 29.3741 156.514 29.3741C154.613 29.3741 155.703 29.3741 153.98 29.3741H154.613C153.36 29.3741 151.956 28.7859 151.277 28.107C150.546 27.3762 150.564 25.8013 150.564 24.5483C150.564 23.3473 150.929 22.4072 151.66 21.7286C152.391 21.0498 153.358 20.7103 154.559 20.7103L155.21 20.7563C156.411 20.7563 153.486 21.1115 154.894 20.6459C156.477 20.1229 156.539 18.4788 156.539 16.9646V9.52379H156.226C154.106 9.52379 152.388 7.80548 152.388 5.68576C152.388 3.56631 154.106 1.84802 156.226 1.84802H170.481C172.466 1.84802 174.293 2.21344 175.964 2.94456C177.687 3.6754 179.176 4.66746 180.429 5.92072C181.682 7.17398 182.674 8.6622 183.405 10.3854C184.136 12.0563 184.501 13.884 184.501 15.8681C184.501 17.7999 184.136 19.6276 183.405 21.3508C182.674 23.0217 181.655 24.4836 180.35 25.7369C179.097 26.9902 177.608 27.9822 175.885 28.7133C174.214 29.4444 172.414 29.8099 170.481 29.8099ZM164.137 9.52379V15.8681C164.137 16.7034 164.293 17.5127 164.606 18.2961C164.972 19.0272 165.442 19.6798 166.017 20.2542C166.59 20.8286 167.27 21.2985 168.053 21.6642C168.837 21.9774 169.645 22.1341 170.481 22.1341C171.368 22.1341 172.178 21.9774 172.909 21.6642C173.692 21.2985 174.371 20.8286 174.945 20.2542C175.52 19.6798 175.964 19.0272 176.277 18.2961C176.643 17.5127 176.825 16.7034 176.825 15.8681C176.825 14.0927 176.199 12.6044 174.945 11.4034C173.745 10.1504 172.257 9.52379 170.481 9.52379H164.137Z" fill="#A3ECD3"/>
<path d="M221.07 44.9999H178.866H122.5C121.247 44.9999 120.281 44.6605 119.602 43.9819C118.871 43.2508 118.506 42.2587 118.506 41.0055C118.506 39.8045 118.871 38.8646 119.602 38.1858C120.333 37.5072 121.299 37.1677 122.5 37.1677H190.523C189.531 35.2356 189.034 33.173 189.034 30.9799C189.034 28.4737 189.765 25.9934 191.228 23.5391C189.453 22.7038 187.886 21.2938 186.528 19.3097C186.119 18.6733 186.22 17.8361 186.768 17.3147L189.558 14.6623C190.138 14.1104 191.053 14.122 191.619 14.6883C193.499 16.4115 195.405 17.273 197.337 17.273L221.07 17.0381C222.95 17.0381 224.725 17.4038 226.396 18.1346C228.119 18.8657 229.607 19.8841 230.86 21.1893C232.166 22.4426 233.184 23.9308 233.915 25.6539C234.646 27.3249 235.012 29.1003 235.012 30.9799C235.012 32.912 234.646 34.7397 233.915 36.4629C233.184 38.1338 232.192 39.6217 230.939 40.9273C229.686 42.1805 228.197 43.1726 226.474 43.9037C224.804 44.6345 223.002 44.9999 221.07 44.9999ZM215.666 35.9007H221.07C222.793 35.9007 224.228 35.3263 225.378 34.1775C226.579 32.9765 227.179 31.4882 227.179 29.7128C227.179 27.9899 226.579 26.5277 225.378 25.3267C224.228 24.1257 222.793 23.4993 221.07 23.4468L215.587 23.6035C216.631 25.5357 217.153 27.572 217.153 29.7128C217.153 31.9581 216.658 34.0208 215.666 35.9007ZM202.977 23.682C201.306 23.682 199.87 24.2824 198.669 25.4834C197.468 26.6844 196.867 28.0941 196.867 29.7128C196.867 31.436 197.468 32.8982 198.669 34.099C199.87 35.3 201.306 35.9007 202.977 35.9007C204.752 35.9007 206.241 35.3263 207.442 34.1775C208.695 32.9765 209.321 31.4882 209.321 29.7128C209.321 28.0941 208.695 26.6844 207.442 25.4834C206.189 24.2824 204.7 23.682 202.977 23.682Z" fill="#A3ECD3"/>
<path d="M126.211 28.6307C124.491 28.6307 122.845 28.3113 121.272 27.6724C119.7 26.9844 118.299 26.0261 117.071 24.7975C114.662 27.3038 111.763 28.557 108.372 28.557H107.34C106.209 28.557 105.3 28.2376 104.612 27.5988C103.924 26.9597 103.58 26.0751 103.58 24.9448C103.58 23.7654 103.924 22.8562 104.612 22.2174C105.251 21.5293 106.16 21.4935 107.34 21.4935L108.372 21.3671C109.502 21.3671 110.559 20.7676 111.542 19.932C112.574 19.0966 113.09 17.9663 113.09 16.5411V10.5907C113.09 6.34503 116.528 2.74873 120.769 2.55817L126.211 2.31348C128.079 2.31348 129.799 2.65751 131.371 3.34559C132.993 4.03367 134.394 4.96725 135.574 6.14689C136.753 7.32626 137.687 8.72705 138.375 10.3487C139.063 11.9214 139.406 13.6416 139.406 15.509V16.32C139.505 17.7451 139.997 18.9245 140.881 19.8584C141.766 20.743 142.872 20.7143 144.198 20.7143L145.074 20.7562C146.253 20.7562 147.172 21.5293 147.811 22.2174C148.499 22.8562 148.843 23.7654 148.843 24.9448C148.843 26.0751 148.929 27.4681 148.241 28.1069C147.603 28.746 146.887 29.374 145.707 29.374L143.913 29.3369C142.242 29.3369 140.931 28.2376 139.406 27.5988C137.933 26.9105 138.105 27.0913 135.571 25.1908C132.404 27.7249 129.749 28.6307 126.211 28.6307ZM120.24 9.68526V15.509C120.24 16.2953 120.388 17.057 120.683 17.7941C121.027 18.4822 121.469 19.0967 122.01 19.6372C122.55 20.1778 123.189 20.6201 123.926 20.9641C124.663 21.2589 125.425 21.4064 126.211 21.4064C127.047 21.4064 127.808 21.2589 128.496 20.9641C129.234 20.6201 129.872 20.1778 130.413 19.6372C130.954 19.0967 131.371 18.4822 131.666 17.7941C132.011 17.057 132.182 16.2953 132.182 15.509C132.182 13.8381 131.593 12.4373 130.413 11.3072C129.283 10.1276 127.883 9.53774 126.211 9.53774L120.24 9.68526Z" fill="white"/>
<path d="M98.313 2.61316C96.15 2.61316 94.4327 4.37016 94.4327 6.53292V16.2732C94.4327 17.7354 93.9203 18.9903 92.928 20.0346C91.936 21.0267 90.7617 21.4995 89.4043 21.4995H86.4346C86.0524 21.4154 85.6672 21.3017 85.2073 21.3017H80.6539C79.3484 21.3017 77.9855 21.5983 76.5755 22.1727C77.8288 20.0319 78.4762 17.6835 78.4762 15.125C78.4762 13.1928 78.0716 11.3714 77.2882 9.70046C76.5574 7.97729 75.545 6.51912 74.2395 5.26585C72.9343 4.01259 71.4092 3.0273 69.6861 2.29646C67.9632 1.56534 66.1542 1.18774 64.222 1.18774C62.3422 1.18774 60.521 1.56534 58.7978 2.29646C57.1269 3.0273 55.6685 4.01259 54.3632 5.26585C53.11 6.51912 52.0581 7.97729 51.2747 9.70046C50.5436 11.3714 50.2058 13.1928 50.2058 15.125V21.3017H46.6027H45.7317C44.3739 21.3017 43.1997 20.8556 42.2077 19.9158C41.2156 18.976 40.7427 17.8288 40.7427 16.4711V6.10173C40.7427 4.1095 39.1275 2.49433 37.1353 2.49433H36.748C34.7557 2.49433 33.1406 4.1095 33.1406 6.10173V11.3974V19.5198C33.1406 21.2429 32.7898 22.863 32.1112 24.4297C31.4323 25.9439 30.5279 27.2797 29.3792 28.4285C28.2304 29.525 26.8672 30.3755 25.3008 31.0021C23.7866 31.681 22.127 32.0318 20.3516 32.0318C18.6284 32.0318 17.0355 31.681 15.521 31.0021C14.0068 30.3755 12.6707 29.525 11.5222 28.4285C10.3734 27.2797 9.46877 25.9439 8.79017 24.4297C8.16354 22.863 7.8398 21.2429 7.8398 19.5198V10.9719C7.8398 8.97963 6.22463 7.36447 4.2324 7.36447H3.6074C1.61517 7.36447 0 8.97963 0 10.9719V19.5198C0 22.3395 0.539471 24.9451 1.58377 27.3991C2.68031 29.8534 4.11168 32.0256 5.93933 33.853C7.81896 35.7329 10.0183 37.1643 12.4723 38.2086C14.9266 39.3051 17.5319 39.8714 20.3516 39.8714C22.4402 39.8714 24.4776 39.5747 26.4095 39.0003C28.3416 38.4259 30.0965 37.6025 31.7151 36.5059C33.3861 35.4094 34.857 34.0733 36.1102 32.5069C37.4155 30.9404 38.4549 29.2124 39.238 27.2802C41.4313 28.5335 43.5908 29.1412 45.7317 29.1412H46.6027H50.8392V31.6358C50.8392 33.359 51.1502 35.0185 51.8291 36.585C52.508 38.1517 53.4521 39.5146 54.6006 40.6634C55.8016 41.8644 57.1521 42.7956 58.7185 43.4744C60.285 44.1533 61.9448 44.5038 63.668 44.5038H81.0992C82.8432 44.5038 84.2569 43.0901 84.2569 41.346V39.8221C84.2569 38.0781 82.8432 36.6643 81.0992 36.6643H76.7341C76.6294 36.4553 76.5487 36.2128 76.4965 35.9516C76.392 35.5859 76.3381 35.1815 76.3381 34.7638C76.3381 34.3981 76.3381 34.0871 76.3381 33.774C76.3381 32.6771 76.7696 31.638 77.6052 30.6459C78.4405 29.6536 79.4529 29.1412 80.6539 29.1412H83.3859L89.3249 29.2205C92.6668 29.2205 95.6876 28.1651 98.1942 25.8153C99.6039 27.2253 101.386 27.9586 103.579 28.4285C104.808 28.6919 106.086 28.6264 107.341 28.5473C107.488 28.5381 107.629 28.5576 107.776 28.5473C108.045 28.5289 108.301 28.5257 108.568 28.5078C109.997 28.4853 111.315 28.2285 112.567 27.7556C112.841 27.6091 113.122 27.4584 113.398 27.32C113.542 27.2445 113.624 27.2142 113.755 27.1617C114.105 26.9798 114.41 26.6693 114.745 26.449C114.932 26.2151 115.101 25.9877 115.101 25.3403C115.101 24.087 114.723 23.1556 113.992 22.529C113.313 21.8501 112.751 20.985 111.498 20.985L108.489 21.3412C108.447 21.3428 108.412 21.3807 108.37 21.3807L107.261 21.4995C105.851 21.4995 104.65 21.0267 103.658 20.0346C102.718 19.0426 102.233 17.8288 102.233 16.4711V6.53292C102.233 4.37016 100.476 2.61316 98.313 2.61316ZM64.222 8.94823C65.9452 8.94823 67.4432 9.55591 68.6964 10.8092C69.9494 12.0102 70.5574 13.4811 70.5574 15.204C70.5574 16.9272 69.9494 18.4251 68.6964 19.6784C67.4432 20.9314 65.9452 21.5393 64.222 21.5393H58.0453V15.204C58.0453 13.4811 58.6262 12.0102 59.8272 10.8092C61.0805 9.55591 62.5511 8.94823 64.222 8.94823ZM70.3197 27.7951C69.2754 29.5705 68.7755 31.4729 68.7755 33.4572C68.7755 33.7182 68.8026 34.1101 68.8548 34.6845C68.907 35.2589 68.9752 35.9332 69.132 36.6643H63.9054C63.2265 36.6643 62.5525 36.5292 61.9256 36.2683C61.2992 36.0071 60.7454 35.6295 60.2232 35.1596C59.7531 34.6897 59.3484 34.1629 59.0352 33.5363C58.7743 32.9619 58.6395 32.3144 58.6395 31.6358V29.1412H64.222C66.3632 29.1412 68.3876 28.6827 70.3197 27.7951Z" fill="white"/>
</svg>
