<svg width="16" height="16" viewBox="0 0 16 16" fill="none" xmlns="http://www.w3.org/2000/svg">
<path d="M3.43372e-06 8.00531V7.98731C3.43372e-06 7.87598 0.0400034 7.71131 0.11867 7.49265C0.218818 7.29007 0.376787 7.12173 0.572602 7.00892C0.768417 6.89611 0.993285 6.8439 1.21877 6.85888C1.44426 6.87387 1.66024 6.95538 1.83941 7.09311C2.01857 7.23083 2.15288 7.41859 2.22534 7.63265C2.266 7.79398 2.286 7.91398 2.28534 7.99265V8.01531C2.28357 8.76523 2.43063 9.50804 2.71798 10.2007C3.00532 10.8934 3.42726 11.5222 3.95934 12.0506C6.19067 14.2766 9.80934 14.2766 12.0407 12.0506C12.5712 11.5221 12.9921 10.894 13.2793 10.2023C13.5666 9.51072 13.7144 8.7692 13.7144 8.02031C13.7144 7.27143 13.5666 6.5299 13.2793 5.83828C12.9921 5.14666 12.5712 4.51855 12.0407 3.98998C10.0713 2.02598 7.02267 1.79465 4.8 3.29665L6.09467 4.58865C6.1752 4.66815 6.23018 4.76987 6.25258 4.8808C6.27497 4.99173 6.26376 5.10681 6.22038 5.21133C6.17699 5.31585 6.10341 5.40505 6.00905 5.46752C5.91469 5.52998 5.80383 5.56287 5.69067 5.56198H1.25734C1.18234 5.56207 1.10806 5.54737 1.03875 5.51873C0.969434 5.49009 0.906446 5.44807 0.853384 5.39507C0.800322 5.34207 0.758227 5.27913 0.729507 5.20985C0.700786 5.14057 0.686004 5.06631 0.686004 4.99131V0.56998C0.68568 0.456756 0.719044 0.345994 0.781853 0.251786C0.844661 0.157579 0.934074 0.0841845 1.03872 0.0409411C1.14336 -0.00230236 1.2585 -0.0134402 1.36949 0.00894456C1.48048 0.0313293 1.5823 0.0862248 1.662 0.166647L3.162 1.66331C6.298 -0.716686 10.7933 -0.478686 13.6567 2.37798C16.7813 5.49398 16.7813 10.5466 13.6567 13.6626C10.5327 16.7793 5.46734 16.7793 2.34334 13.6626C1.59791 12.9216 1.00696 12.0399 0.604716 11.0688C0.202471 10.0977 -0.00306939 9.05643 3.43372e-06 8.00531Z" fill="#3B8EBC"/>
</svg>
