<svg width="512" height="512" viewBox="0 0 512 512" fill="none" xmlns="http://www.w3.org/2000/svg">
<rect width="512" height="512" fill="#3B8EBC"/>
<path d="M72.8896 262.781V278.379C72.8896 282.854 76.5169 286.481 80.9908 286.481H96.0799V274.016C96.0799 267.811 91.0493 262.781 84.8445 262.781H72.8896Z" fill="white"/>
<path d="M353.723 381.536C349.219 381.536 345.568 385.187 345.568 389.691V397.336C345.568 401.84 349.219 405.491 353.723 405.491H364.936C369.44 405.491 373.091 401.84 373.091 397.336V389.691C373.091 385.187 369.44 381.536 364.936 381.536H353.723Z" fill="white"/>
<path d="M314.604 381.536C310.101 381.536 306.449 385.187 306.449 389.691V397.336C306.449 401.84 310.101 405.491 314.604 405.491H325.817C330.321 405.491 333.972 401.84 333.972 397.336V389.691C333.972 385.187 330.321 381.536 325.817 381.536H314.604Z" fill="white"/>
<path d="M274.07 195.078C268.185 195.078 262.559 193.985 257.181 191.801C251.803 189.448 247.016 186.172 242.812 181.97C238.779 186.172 235.236 193.675 229.119 193.675C223.003 193.675 228.203 193.591 222.657 193.591L219.785 193.675C217.581 193.675 50.1838 191.561 40.8334 192.239C32.7882 192.239 27.8385 192.551 26.848 191.561C24.4952 189.209 23.3208 182.178 23.3208 178.146C23.3208 174.28 24.495 171.255 26.8479 169.071C29.2007 166.887 32.3122 165.794 36.1772 165.794L215.27 165.942C219.135 165.942 212.938 167.085 217.472 165.587C222.566 163.904 229.201 158.613 229.201 153.74V129.795H228.194C221.373 129.795 215.844 124.265 215.844 117.443C215.844 110.623 221.373 105.093 228.194 105.093H274.07C280.455 105.093 286.335 106.269 291.713 108.622C297.258 110.974 302.049 114.166 306.081 118.2C310.114 122.233 313.306 127.022 315.659 132.567C318.012 137.945 319.186 143.826 319.186 150.211C319.186 156.428 318.012 162.31 315.659 167.855C313.306 173.233 310.028 177.937 305.829 181.97C301.796 186.004 297.005 189.196 291.459 191.549C286.081 193.902 280.287 195.078 274.07 195.078ZM253.654 129.795V150.211C253.654 152.9 254.156 155.504 255.163 158.025C256.341 160.378 257.853 162.478 259.701 164.326C261.548 166.175 263.733 167.687 266.253 168.864C268.777 169.872 271.379 170.376 274.07 170.376C276.923 170.376 279.529 169.872 281.882 168.864C284.402 167.687 286.587 166.175 288.434 164.326C290.285 162.478 291.713 160.378 292.72 158.025C293.898 155.504 294.485 152.9 294.485 150.211C294.485 144.498 292.471 139.709 288.434 135.844C284.573 131.811 279.782 129.795 274.07 129.795H253.654Z" fill="#A3ECD3"/>
<path d="M436.869 243.962H301.051H32.7703C28.738 243.962 25.629 242.869 23.4443 240.686C21.0924 238.333 19.9155 235.14 19.9155 231.107C19.9155 227.242 21.0924 224.217 23.4443 222.033C25.7972 219.849 28.9052 218.757 32.7703 218.757H338.566C335.373 212.539 333.775 205.901 333.775 198.843C333.775 190.778 336.128 182.796 340.833 174.898C335.121 172.21 330.081 167.672 325.71 161.287C324.393 159.239 324.719 156.545 326.48 154.867L335.459 146.331C337.326 144.555 340.271 144.593 342.093 146.415C348.144 151.96 354.276 154.733 360.494 154.733L436.869 153.977C442.919 153.977 448.632 155.154 454.01 157.506C459.555 159.859 464.342 163.136 468.375 167.336C472.579 171.369 475.853 176.158 478.206 181.704C480.558 187.081 481.737 192.795 481.737 198.843C481.737 205.061 480.558 210.943 478.206 216.488C475.853 221.866 472.66 226.654 468.628 230.855C464.596 234.888 459.805 238.081 454.259 240.434C448.885 242.786 443.087 243.962 436.869 243.962ZM419.478 214.679H436.869C442.414 214.679 447.034 212.831 450.732 209.134C454.597 205.269 456.53 200.479 456.53 194.766C456.53 189.221 454.597 184.516 450.732 180.651C447.034 176.786 442.414 174.77 436.869 174.601L419.226 175.105C422.585 181.323 424.266 187.876 424.266 194.766C424.266 201.992 422.671 208.629 419.478 214.679ZM378.643 175.358C373.265 175.358 368.645 177.29 364.78 181.155C360.915 185.02 358.982 189.557 358.982 194.766C358.982 200.311 360.915 205.017 364.78 208.881C368.645 212.746 373.265 214.679 378.643 214.679C384.356 214.679 389.147 212.831 393.012 209.134C397.044 205.269 399.059 200.479 399.059 194.766C399.059 189.557 397.044 185.02 393.012 181.155C388.98 177.29 384.189 175.358 378.643 175.358Z" fill="#A3ECD3"/>
<path d="M422.862 354.918C417.326 354.918 412.028 353.89 406.967 351.835C401.906 349.62 397.399 346.537 393.445 342.583C385.695 350.648 376.364 354.681 365.452 354.681H362.131C358.493 354.681 355.567 353.653 353.353 351.598C351.138 349.541 350.032 346.694 350.032 343.057C350.032 339.261 351.138 336.335 353.353 334.28C355.409 332.065 358.335 331.95 362.131 331.95L365.452 331.543C369.09 331.543 372.49 329.614 375.653 326.925C378.974 324.237 380.635 320.599 380.635 316.013V296.863C380.635 283.2 391.7 271.627 405.349 271.014L422.862 270.226C428.873 270.226 434.406 271.334 439.466 273.548C444.686 275.762 449.195 278.767 452.992 282.563C456.787 286.358 459.792 290.866 462.007 296.085C464.22 301.146 465.325 306.682 465.325 312.691V315.301C465.643 319.887 467.225 323.683 470.071 326.688C472.918 329.535 476.477 329.442 480.746 329.442L483.563 329.577C487.36 329.577 490.316 332.065 492.371 334.28C494.585 336.335 495.694 339.261 495.694 343.057C495.694 346.694 495.971 351.177 493.757 353.233C491.702 355.289 489.399 357.31 485.603 357.31L479.829 357.191C474.451 357.191 470.231 353.653 465.325 351.598C460.583 349.382 461.138 349.964 452.983 343.848C442.789 352.004 434.247 354.918 422.862 354.918ZM403.646 293.95V312.691C403.646 315.222 404.121 317.673 405.069 320.045C406.176 322.259 407.6 324.237 409.34 325.976C411.079 327.716 413.136 329.139 415.508 330.246C417.881 331.195 420.332 331.67 422.862 331.67C425.55 331.67 428.001 331.195 430.214 330.246C432.588 329.139 434.643 327.716 436.384 325.976C438.125 324.237 439.466 322.259 440.417 320.045C441.525 317.673 442.076 315.222 442.076 312.691C442.076 307.314 440.18 302.806 436.384 299.169C432.747 295.373 428.241 293.475 422.862 293.475L403.646 293.95Z" fill="white"/>
<path d="M333.081 271.191C326.12 271.191 320.594 276.845 320.594 283.805V315.15C320.594 319.856 318.945 323.894 315.751 327.255C312.559 330.448 308.78 331.969 304.411 331.969H294.854C293.625 331.698 292.385 331.333 290.905 331.333H276.251C272.05 331.333 267.664 332.287 263.127 334.136C267.16 327.246 269.243 319.689 269.243 311.455C269.243 305.237 267.941 299.376 265.42 293.998C263.068 288.453 259.81 283.76 255.609 279.727C251.409 275.694 246.501 272.523 240.956 270.171C235.411 267.819 229.59 266.603 223.372 266.603C217.322 266.603 211.461 267.819 205.916 270.171C200.539 272.523 195.845 275.694 191.645 279.727C187.612 283.76 184.227 288.453 181.706 293.998C179.353 299.376 178.266 305.237 178.266 311.455V331.333H166.671H163.867C159.498 331.333 155.719 329.897 152.527 326.873C149.334 323.848 147.812 320.156 147.812 315.787V282.417C147.812 276.006 142.615 270.808 136.203 270.808H134.957C128.546 270.808 123.348 276.006 123.348 282.417V299.459V325.598C123.348 331.144 122.219 336.357 120.035 341.399C117.85 346.272 114.94 350.571 111.243 354.268C107.546 357.796 103.159 360.533 98.1183 362.55C93.2454 364.735 87.9047 365.864 82.1912 365.864C76.6458 365.864 71.5195 364.735 66.6457 362.55C61.7728 360.533 57.4731 357.796 53.7771 354.268C50.0801 350.571 47.169 346.272 44.9851 341.399C42.9685 336.357 41.9267 331.144 41.9267 325.598V298.09C41.9267 291.679 36.7289 286.481 30.3177 286.481H28.3063C21.8951 286.481 16.6973 291.679 16.6973 298.09V325.598C16.6973 334.672 18.4334 343.058 21.794 350.955C25.3228 358.853 29.9292 365.844 35.8108 371.724C41.8596 377.774 48.9373 382.38 56.8346 385.741C64.7328 389.27 73.117 391.092 82.1912 391.092C88.9126 391.092 95.4693 390.137 101.686 388.289C107.904 386.441 113.551 383.791 118.761 380.262C124.138 376.733 128.871 372.433 132.904 367.392C137.105 362.351 140.45 356.79 142.97 350.572C150.028 354.606 156.978 356.561 163.867 356.561H166.671H180.304V364.589C180.304 370.135 181.305 375.475 183.49 380.516C185.674 385.558 188.713 389.944 192.409 393.641C196.274 397.506 200.62 400.503 205.661 402.687C210.702 404.872 216.043 406 221.589 406H277.684C283.297 406 287.847 401.45 287.847 395.838V390.934C287.847 385.321 283.297 380.771 277.684 380.771H263.637C263.3 380.099 263.04 379.318 262.872 378.478C262.536 377.301 262.363 376 262.363 374.656C262.363 373.479 262.363 372.478 262.363 371.47C262.363 367.94 263.751 364.596 266.44 361.404C269.129 358.21 272.386 356.561 276.251 356.561H285.043L304.156 356.816C314.911 356.816 324.632 353.42 332.698 345.858C337.235 350.396 342.969 352.755 350.027 354.268C353.983 355.115 358.097 354.904 362.132 354.65C362.608 354.62 363.059 354.683 363.534 354.65C364.399 354.591 365.225 354.58 366.082 354.523C370.68 354.451 374.922 353.624 378.951 352.102C379.833 351.631 380.736 351.146 381.628 350.7C382.089 350.457 382.355 350.36 382.774 350.191C383.9 349.605 384.883 348.606 385.959 347.897C386.561 347.145 387.107 346.413 387.107 344.329C387.107 340.296 385.891 337.299 383.539 335.282C381.354 333.097 379.544 330.313 375.512 330.313L365.828 331.46C365.693 331.465 365.58 331.587 365.445 331.587L361.877 331.969C357.34 331.969 353.476 330.448 350.282 327.255C347.258 324.062 345.695 320.156 345.695 315.787V283.805C345.695 276.845 340.041 271.191 333.081 271.191ZM223.372 291.578C228.917 291.578 233.738 293.533 237.771 297.566C241.803 301.431 243.76 306.165 243.76 311.71C243.76 317.255 241.803 322.075 237.771 326.109C233.738 330.141 228.917 332.097 223.372 332.097H203.494V311.71C203.494 306.165 205.364 301.431 209.229 297.566C213.262 293.533 217.995 291.578 223.372 291.578ZM242.995 352.229C239.634 357.943 238.025 364.065 238.025 370.451C238.025 371.29 238.112 372.552 238.281 374.4C238.449 376.249 238.668 378.419 239.173 380.771H222.353C220.168 380.771 217.999 380.337 215.981 379.497C213.966 378.656 212.183 377.441 210.503 375.929C208.99 374.417 207.688 372.722 206.68 370.705C205.84 368.857 205.406 366.773 205.406 364.589V356.561H223.372C230.262 356.561 236.777 355.086 242.995 352.229Z" fill="white"/>
</svg>
